@startuml
skinparam classAttributeIconSize 0
class Application {
    -Monster monster
    +runApp():void
    +readWeapon():void
    +toString():String
}

class Monster {
    - Weapon[] weapon
    + Monster()
    + addWeapon(w:Weapon):void
    + save(fileName:String):void
    + load(fileName:String):void
    + readKeyboard():void
    + toString():String
}

class Weapon {
    ~ value:int
    ~ name:String
    + Weapon(name:String,value:int)
    + readKeyboard():void
    + getName():String
    + getValue():String
    + setValue(value:int):void
    + load(in:Scanner):void
    + save(pw:PrintWriter):void
    + toString():String
}

class Stick {
    -length:int
    +Stick()
    +Stick(name:String, value:int, length:int)
    + readKeyboard():void
    +getLength():int
    +setLength(length:int):void
    + load(in:Scanner):void
    + save(pw:PrintWriter):void
    + toString():String
}

class Gun {
    -numBullets:int
    -calibre:double
    +Gun()
    +Gun(name:String,value:int,calibre:double)
    + readKeyboard():void
    +getNumBullets():int
    +setNumBullets(numBullets:int):void
    +getCalibre():double
    +setCalibre(calibre:double):void
    + load(in:Scanner):void
    + save(pw:PrintWriter):void
    + toString():String
}

Weapon <|-- Gun
Weapon <|-- Stick

Application "1..1" --> "1..1" Monster
Monster "1..1" --> "0..*" Weapon


@enduml
